<?xml version="1.0" encoding="UTF-8"?>
<svg id="Layer_1" data-name="Layer 1" xmlns="http://www.w3.org/2000/svg" viewBox="0 0 500 500">
  <defs>
    <style>
      .cls-1 {
        fill: #c7c7dd;
      }
    </style>
  </defs>
  <path class="cls-1" d="M208.28,322.34c4.37-15.75-3.61-30.92-19.25-36.68-28.09-10.33-65.66,5.04-70.12,36.37-1.09,7.63.39,14.61,1.08,22.11-39.74,10.41-73.27-10.73-90.86-45.27-6.7-13.15-12.15-26.65-16.63-42.18,20.46,6.72,34.55,13.48,54.49-1.9l34.48-26.61c12.35-9.53,27.31-13.35,42.88-12.11,2.79-29.2,6.37-58.37,30.94-77.22,14.53-11.14,33.23-14.41,51.62-11.85-1.92,9.9-4.55,19.1-4.07,29.04,1.04,21.7,16.23,37.7,35.85,45.18,16.97,6.47,34.36,7.46,50.61-1.55,12.31-6.82,18.73-19.71,16.34-34.1-1.46-8.75-3.99-17.71-8.33-25.45-.73-1.31-3.78.1-3.88,1.07-1.25,11.69,2.96,13.31,2.96,25.6,0,13.13-7.13,23.48-19.37,27.82-12.3,4.37-24.78,1.75-36.28-3.61-13.98-6.52-23.19-17.99-25.35-33.58-4.44-32.12,13.88-57.72,43.19-69.54,25.46-11.19,54.56-11.07,78.57,2.75,18.01,10.36,29.88,26.88,33.96,47.33,30.22-4.65,58.39,7.19,75.58,31.61,20.03,28.46,25.54,63.72,16.81,97.45-4.48,17.31-12.5,32.62-26.08,44.66-18.66,16.54-47.67,23.85-71.74,15.01-15.08-5.54-23.83-19.63-25.61-35.35-1.78-15.7,4.07-31.8,15.39-42.82,11.9-11.58,26.52,1.92,29.66-3.96,4.16-7.78-16.21-15.51-32-5.49-4.27,2.71-8.93,6.04-11.77,10.49-11.12,17.48-13.32,39.15-6.49,58.56,4.87,13.84,15.15,23.72,29.77,27.42-1.08,14.75-8.86,27.61-21,36.41-23.4,16.94-53.92,21.72-80.91,10.76-11.36-4.61-18.56-14-26.04-23.19l-16.23,13.63c-12.01,10.09-25.97,17.36-41.54,19.47-29.75,4.03-56.29-12.09-65.99-39.92-3.23-9.28-5.48-18.22-4.53-28.27,2.5-26.39,30.39-35.68,52.86-32.11,17.91,2.85,19.21,16.87,27.01,30.02Z"/>
</svg>